<?xml version="1.0" encoding="UTF-8" standalone="no"?>
<!DOCTYPE svg PUBLIC "-//W3C//DTD SVG 1.1//EN"
 "http://www.w3.org/Graphics/SVG/1.1/DTD/svg11.dtd">
<!-- Generated by graphviz version 2.40.1 (20161225.0304)
 -->
<!-- Title: models_diagram Pages: 1 -->
<svg width="163pt" height="226pt"
 viewBox="0.00 0.00 163.00 226.00" xmlns="http://www.w3.org/2000/svg" xmlns:xlink="http://www.w3.org/1999/xlink">
<g id="graph0" class="graph" transform="scale(1 1) rotate(0) translate(36 190)">
<title>models_diagram</title>
<polygon fill="#ffffff" stroke="transparent" points="-36,36 -36,-190 127,-190 127,36 -36,36"/>
<!-- example_user -->
<g id="node1" class="node">
<title>example_user</title>
<polygon fill="#add8e6" stroke="transparent" points=".5,-132 .5,-154 91.5,-154 91.5,-132 .5,-132"/>
<polygon fill="none" stroke="#000000" points=".5,-132 .5,-154 91.5,-154 91.5,-132 .5,-132"/>
<text text-anchor="start" x="18.234" y="-141" font-family="Times,serif" font-weight="bold" font-size="10.00" fill="#000000">example_user</text>
<polygon fill="none" stroke="#000000" points=".5,-110 .5,-132 91.5,-132 91.5,-110 .5,-110"/>
<text text-anchor="start" x="5.5" y="-119" font-family="Times,serif" text-decoration="underline" font-size="10.00" fill="#000000">id</text>
<text text-anchor="start" x="13.279" y="-119" font-family="Times,serif" font-size="10.00" fill="#000000">: NUMBER</text>
<polygon fill="none" stroke="#000000" points=".5,-88 .5,-110 91.5,-110 91.5,-88 .5,-88"/>
<text text-anchor="start" x="5.5" y="-96" font-family="Times,serif" font-size="10.00" fill="#000000">email: STRING</text>
<polygon fill="none" stroke="#000000" points=".5,-66 .5,-88 91.5,-88 91.5,-66 .5,-66"/>
<text text-anchor="start" x="5.318" y="-74" font-family="Times,serif" font-size="10.00" fill="#000000">firstName: STRING</text>
<polygon fill="none" stroke="#000000" points=".5,-44 .5,-66 91.5,-66 91.5,-44 .5,-44"/>
<text text-anchor="start" x="5.5" y="-52" font-family="Times,serif" font-size="10.00" fill="#000000">lastName: STRING</text>
<polygon fill="none" stroke="#000000" points=".5,-22 .5,-44 91.5,-44 91.5,-22 .5,-22"/>
<text text-anchor="start" x="5.5" y="-30" font-family="Times,serif" font-size="10.00" fill="#000000">createdAt: DATE</text>
<polygon fill="none" stroke="#000000" points=".5,0 .5,-22 91.5,-22 91.5,0 .5,0"/>
<text text-anchor="start" x="5.5" y="-8" font-family="Times,serif" font-size="10.00" fill="#000000">updatedAt: DATE</text>
</g>
</g>
</svg>
